<?xml version="1.0" encoding="UTF-8" standalone="no"?>
<!-- Created with Inkscape (http://www.inkscape.org/) -->

<svg
   width="5.5358377mm"
   height="4.9050946mm"
   viewBox="0 0 5.5358377 4.9050946"
   version="1.1"
   id="svg1"
   inkscape:version="1.4.2 (ebf0e940d0, 2025-05-08)"
   sodipodi:docname="comp.svg"
   xml:space="preserve"
   xmlns:inkscape="http://www.inkscape.org/namespaces/inkscape"
   xmlns:sodipodi="http://sodipodi.sourceforge.net/DTD/sodipodi-0.dtd"
   xmlns="http://www.w3.org/2000/svg"
   xmlns:svg="http://www.w3.org/2000/svg"><sodipodi:namedview
     id="namedview1"
     pagecolor="#ffffff"
     bordercolor="#000000"
     borderopacity="0.25"
     inkscape:showpageshadow="2"
     inkscape:pageopacity="0.0"
     inkscape:pagecheckerboard="0"
     inkscape:deskcolor="#d1d1d1"
     inkscape:document-units="mm"
     inkscape:zoom="0.90510665"
     inkscape:cx="3266.4659"
     inkscape:cy="434.20297"
     inkscape:window-width="1366"
     inkscape:window-height="710"
     inkscape:window-x="0"
     inkscape:window-y="0"
     inkscape:window-maximized="1"
     inkscape:current-layer="layer1"><inkscape:page
       x="0"
       y="0"
       width="5.5358377"
       height="4.9050946"
       id="page2"
       margin="0"
       bleed="0" /></sodipodi:namedview><defs
     id="defs1" /><g
     inkscape:label="Layer 1"
     inkscape:groupmode="layer"
     id="layer1"
     transform="translate(-800.06324,-176.16484)"><g
       id="g30"
       transform="translate(0,-4.3432457)"
       inkscape:export-filename="../assets/img/assets/img/assets/img/assets/img/assets/img/icons/news-light.svg"
       inkscape:export-xdpi="96"
       inkscape:export-ydpi="96"><path
         id="rect8"
         style="stroke-width:0.2;stroke-linecap:round;stroke-linejoin:round;paint-order:stroke fill markers"
         d="m 805.30042,181.88562 c -0.26146,0.89521 -0.58666,2.23478 -1.04884,3.3892 l -3.61438,-1.01048 c -0.056,-0.0157 -0.82024,-0.26003 -0.49262,-1.27422 l 0.77514,-2.39952 c 0.0344,-0.10583 0.0748,-0.0961 0.27305,-0.0473 1.10411,0.27178 2.80084,0.63922 4.00314,1.14208 0.0376,0.0157 0.14095,0.0794 0.10451,0.20028 z"
         sodipodi:nodetypes="ccsscsscc" /><path
         style="fill:none;stroke:#000000;stroke-width:0.2;stroke-linecap:round;stroke-linejoin:round;paint-order:stroke fill markers"
         d="m 805.49905,183.06843 -0.62013,2.02828 c -0.0926,0.384 -0.7556,0.22019 -0.56843,-0.20671"
         id="path13"
         sodipodi:nodetypes="ccc" /><path
         style="fill:none;stroke:#000000;stroke-width:0.2;stroke-linecap:round;stroke-linejoin:round;paint-order:stroke fill markers"
         d="m 805.43445,182.23708 -0.64595,2.15747"
         id="path14" /><path
         style="fill:none;stroke:#f9f9f9;stroke-width:0.2;stroke-linecap:round;stroke-linejoin:round;paint-order:stroke fill markers"
         d="m 801.57167,181.01574 0.49091,0.1421 c 0.23151,0.0806 0.30552,0.18003 0.23254,0.29714 l -0.1421,0.37465 c -0.0441,0.19123 -0.1987,0.10613 -0.33589,0.0646 l -0.49091,-0.1421 c -0.19844,-0.03 -0.22404,-0.14637 -0.15505,-0.31006 l 0.1292,-0.29714 c 0.0412,-0.0726 0.0549,-0.16172 0.2713,-0.12919 z"
         id="path15"
         sodipodi:nodetypes="ccccccccc" /><path
         style="fill:none;stroke:#f9f9f9;stroke-width:0.2;stroke-linecap:round;stroke-linejoin:round;paint-order:stroke fill markers"
         d="m 802.68271,181.57125 1.78282,0.45217"
         id="path16" /><path
         style="fill:none;stroke:#f9f9f9;stroke-width:0.2;stroke-linecap:round;stroke-linejoin:round;paint-order:stroke fill markers"
         d="m 802.56643,181.95882 1.67947,0.46508"
         id="path18" /><path
         style="fill:none;stroke:#f9f9f9;stroke-width:0.2;stroke-linecap:round;stroke-linejoin:round;paint-order:stroke fill markers"
         d="m 800.95157,182.17844 3.12637,0.90433"
         id="path23" /><path
         style="fill:none;stroke:#f9f9f9;stroke-width:0.2;stroke-linecap:round;stroke-linejoin:round;paint-order:stroke fill markers"
         d="m 800.60274,183.53143 3.17807,0.94309"
         id="path26" /><path
         style="fill:none;stroke:#f9f9f9;stroke-width:0.2;stroke-linecap:round;stroke-linejoin:round;paint-order:stroke fill markers"
         d="m 800.75776,183.12499 3.13931,0.90433"
         id="path27" /><path
         style="fill:none;stroke:#f9f9f9;stroke-width:0.2;stroke-linecap:round;stroke-linejoin:round;paint-order:stroke fill markers"
         d="m 800.86112,182.64352 3.11348,0.93017"
         id="path28" /></g></g></svg>
