<?xml version="1.0" encoding="UTF-8" standalone="no"?>
<!-- Created with Inkscape (http://www.inkscape.org/) -->

<svg
   width="4.2675042mm"
   height="4.2120652mm"
   viewBox="0 0 4.2675042 4.2120652"
   version="1.1"
   id="svg1"
   inkscape:version="1.4.2 (ebf0e940d0, 2025-05-08)"
   sodipodi:docname="comp.svg"
   xml:space="preserve"
   xmlns:inkscape="http://www.inkscape.org/namespaces/inkscape"
   xmlns:sodipodi="http://sodipodi.sourceforge.net/DTD/sodipodi-0.dtd"
   xmlns="http://www.w3.org/2000/svg"
   xmlns:svg="http://www.w3.org/2000/svg"><sodipodi:namedview
     id="namedview1"
     pagecolor="#ffffff"
     bordercolor="#000000"
     borderopacity="0.25"
     inkscape:showpageshadow="2"
     inkscape:pageopacity="0.0"
     inkscape:pagecheckerboard="0"
     inkscape:deskcolor="#d1d1d1"
     inkscape:document-units="mm"
     inkscape:zoom="0.90510665"
     inkscape:cx="3266.4659"
     inkscape:cy="434.20297"
     inkscape:window-width="1366"
     inkscape:window-height="710"
     inkscape:window-x="0"
     inkscape:window-y="0"
     inkscape:window-maximized="1"
     inkscape:current-layer="layer1"><inkscape:page
       x="0"
       y="0"
       width="4.2675042"
       height="4.2120652"
       id="page2"
       margin="0"
       bleed="0" /></sodipodi:namedview><defs
     id="defs1" /><g
     inkscape:label="Layer 1"
     inkscape:groupmode="layer"
     id="layer1"
     transform="translate(-787.26778,-176.09979)"><path
       id="rect39-7-2-3"
       style="fill:#000000;stroke-width:0.171;stroke-linecap:round;stroke-linejoin:round;paint-order:stroke fill markers"
       d="m 790.32961,176.0998 -0.78549,0.0274 -0.13694,1.24282 1.07746,-0.0274 z m -0.91364,0.009 -0.78548,0.0274 -0.19172,1.20561 0.83095,-0.0181 z m 1.86345,0 -0.78548,0.0274 0.0641,1.2423 0.9772,-0.0455 z m -2.79673,0.0279 -0.78548,0.0274 -0.42943,1.13274 1.01389,0.0455 z m -1.05937,1.41593 c -0.19676,0 0.16781,0.35605 0.37466,0.35605 0.20685,0 0.5709,-0.35605 0.37414,-0.35605 z m 2.12184,0.008 c -0.19676,0 0.1678,0.35657 0.37465,0.35657 0.20685,0 0.57142,-0.35657 0.37466,-0.35657 z m 1.08727,0 c -0.19676,0 0.1678,0.35657 0.37465,0.35657 0.20685,0 0.5709,-0.35657 0.37414,-0.35657 z m -2.18333,0.0181 c -0.19676,0 0.16781,0.35656 0.37466,0.35656 0.20685,0 0.57089,-0.35656 0.37413,-0.35656 z m 0.90899,0.22479 -0.27182,0.13074 -0.27182,0.13074 -0.23978,-0.11265 -0.23926,-0.11266 -0.24184,0.10542 c -0.13304,0.0582 -0.26433,0.11519 -0.29197,0.12609 l -0.0507,0.0196 v 1.11053 l 5.2e-4,1.11052 h 0.22841 0.22789 v -0.83147 -0.83096 h 0.35657 0.35605 v 0.83096 0.83147 h 1.02319 1.02371 l -0.005,-1.16168 -0.005,-1.16169 -0.21911,-0.0816 c -0.12057,-0.0449 -0.23142,-0.0829 -0.2465,-0.0842 -0.0151,-0.001 -0.1734,0.0527 -0.35192,0.1204 l -0.32452,0.12351 -0.22893,-0.13177 z m 0.18345,0.90072 h 0.52968 0.5302 v 0.41083 0.41134 h -0.5302 -0.52968 v -0.41134 z"
       inkscape:export-filename="shop-light.png"
       inkscape:export-xdpi="96"
       inkscape:export-ydpi="96" /></g></svg>
