<?xml version="1.0" encoding="UTF-8" standalone="no"?>
<!-- Created with Inkscape (http://www.inkscape.org/) -->

<svg
   width="4.9575138mm"
   height="3.6897416mm"
   viewBox="0 0 4.9575138 3.6897416"
   version="1.1"
   id="svg1"
   inkscape:version="1.4.2 (ebf0e940d0, 2025-05-08)"
   sodipodi:docname="comp.svg"
   xml:space="preserve"
   xmlns:inkscape="http://www.inkscape.org/namespaces/inkscape"
   xmlns:sodipodi="http://sodipodi.sourceforge.net/DTD/sodipodi-0.dtd"
   xmlns="http://www.w3.org/2000/svg"
   xmlns:svg="http://www.w3.org/2000/svg"><sodipodi:namedview
     id="namedview1"
     pagecolor="#ffffff"
     bordercolor="#000000"
     borderopacity="0.25"
     inkscape:showpageshadow="2"
     inkscape:pageopacity="0.0"
     inkscape:pagecheckerboard="0"
     inkscape:deskcolor="#d1d1d1"
     inkscape:document-units="mm"
     inkscape:zoom="1.8102133"
     inkscape:cx="3202.385"
     inkscape:cy="618.71162"
     inkscape:window-width="1366"
     inkscape:window-height="710"
     inkscape:window-x="0"
     inkscape:window-y="0"
     inkscape:window-maximized="1"
     inkscape:current-layer="layer1"><inkscape:page
       x="0"
       y="0"
       width="4.9575138"
       height="3.6897416"
       id="page2"
       margin="0"
       bleed="0" /></sodipodi:namedview><defs
     id="defs1" /><g
     inkscape:label="Layer 1"
     inkscape:groupmode="layer"
     id="layer1"
     transform="translate(-777.18793,-62.099171)"><g
       id="g38"
       inkscape:export-filename="logo-light.png"
       inkscape:export-xdpi="96"
       inkscape:export-ydpi="96"><ellipse
         style="fill:none;stroke:#000000;stroke-width:0.156683;stroke-linecap:round;stroke-linejoin:round;stroke-dasharray:none;paint-order:stroke fill markers"
         id="path15-5"
         cx="779.66888"
         cy="63.944038"
         rx="2.2128072"
         ry="1.7665292" /><path
         id="path10"
         style="fill:#000000;stroke:#ffffff;stroke-width:0.305636;stroke-linecap:round;stroke-linejoin:round;stroke-dasharray:none;paint-order:stroke fill markers"
         d="m 777.6602,62.269285 c -0.0238,-2.69e-4 -0.0472,0.003 -0.0698,0.0098 -0.18255,0.05502 -0.31664,0.336752 -0.21367,0.723621 0.0947,0.195716 0.17316,0.298593 0.44034,0.433578 0.28279,0.142867 0.2259,-0.14045 0.24452,-0.464829 0.0401,-0.416925 -0.0358,-0.659278 -0.3775,-0.70049 -0.008,-8.06e-4 -0.016,-0.0016 -0.0239,-0.0016 z m 2.17053,0.378656 c -0.0423,0.0024 -0.0888,0.01027 -0.13961,0.02428 -0.44594,0.122923 -0.48737,0.386546 -0.42465,0.652194 0.0589,0.539308 -0.29557,1.317228 -0.51847,1.136569 -0.15621,-0.122554 -0.14325,-0.265331 -0.28342,-0.62182 -0.27302,-0.676821 -1.03391,-0.02039 -0.60139,0.48999 0.17337,0.204572 0.24455,0.240618 0.66937,0.571769 0.22679,0.147783 0.36776,0.112851 0.51414,-0.145159 0.0831,-0.146472 0.0859,-0.400857 0.29181,-0.58002 0.78909,-0.593907 0.92823,0.380371 0.68486,0.851531 -0.38658,0.802527 1.18993,0.753992 0.7316,-0.03159 -0.40528,-0.559209 -0.13802,-0.911234 0.60174,-1.003383 0.62145,-0.182565 0.65235,-0.384588 0.63007,-1.027061 -0.0151,-0.434226 -0.543,-0.101042 -0.85214,0.354099 l -0.31277,0.389817 c -0.14838,0.125663 -0.38232,0.518059 -0.6781,0.189665 -0.31706,-0.354459 0.0433,-0.35639 0.0652,-0.780916 0.0123,-0.239617 -0.082,-0.486972 -0.37825,-0.469967 z m -1.52585,0.226259 c -0.008,-2.63e-4 -0.0177,5.38e-4 -0.0275,0.0031 -0.0194,0.0047 -0.0398,0.01641 -0.0612,0.03619 -0.0382,0.0353 -0.0591,0.111827 -0.0659,0.185201 -0.0121,0.116367 -0.0163,0.24849 0.0247,0.319468 0,0 0.0333,0.106096 0.15043,-0.04302 0.0926,-0.117835 0.14049,-0.200466 0.11106,-0.296606 -0.0367,-0.120056 -0.0649,-0.195372 -0.1233,-0.203666 -0.003,-2.69e-4 -0.005,-5.38e-4 -0.008,-5.38e-4 z m 3.51537,1.038827 c -0.0381,0.0019 -0.1842,0.193764 -0.44014,0.189937 -0.15923,-0.0024 -0.34178,-0.0036 -0.32765,0.108564 0.0359,0.139151 0.24683,0.04238 0.33076,0.04505 0.18523,-0.02235 0.49234,-0.269165 0.44582,-0.336445 -0.002,-0.0052 -0.004,-0.0073 -0.009,-0.0071 z" /></g></g></svg>
